<svg width="144" height="52" viewBox="0 0 144 52" fill="none" xmlns="http://www.w3.org/2000/svg">
<g clip-path="url(#clip0_158_185)">
<path d="M23.5599 12.5203L31.3398 32.7577C31.6398 33.4929 31.9613 34.0226 32.3042 34.3469C32.6471 34.6496 32.9579 34.8117 33.2365 34.8334V35.482C32.465 35.4388 31.5648 35.4171 30.5361 35.4171C29.5073 35.3955 28.4572 35.3847 27.3855 35.3847C26.2925 35.3847 25.2638 35.3955 24.2993 35.4171C23.3349 35.4171 22.5633 35.4388 21.9847 35.482V34.8334C23.0777 34.7901 23.7635 34.6063 24.0421 34.282C24.3422 33.9361 24.2779 33.2118 23.8493 32.1091L18.7055 17.7418L19.3485 16.6067L14.9121 28.2497C14.3763 29.6551 14.0441 30.7902 13.9155 31.6551C13.8083 32.4983 13.8619 33.1469 14.0762 33.601C14.2905 34.055 14.6334 34.3685 15.105 34.5415C15.5765 34.7144 16.1337 34.8117 16.7767 34.8334V35.482C15.9837 35.4388 15.2657 35.4171 14.6227 35.4171C14.0012 35.3955 13.3154 35.3847 12.5653 35.3847C12.158 35.3847 11.7187 35.3955 11.2472 35.4171C10.7971 35.4171 10.4113 35.4388 10.0898 35.482V34.8334C10.5828 34.7469 11.065 34.4334 11.5365 33.8928C12.0294 33.3307 12.5331 32.3794 13.0475 31.0389L20.1844 12.5203C20.6987 12.5636 21.256 12.5852 21.8561 12.5852C22.4776 12.5852 23.0455 12.5636 23.5599 12.5203ZM24.6851 26.1417V26.7903H15.105L15.4264 26.1417H24.6851ZM46.0759 18.1959C46.8475 18.1959 47.4476 18.3688 47.8762 18.7148C48.3049 19.0391 48.6049 19.4607 48.7764 19.9796C48.9478 20.4769 49.0336 20.9742 49.0336 21.4715C49.0336 22.4444 48.755 23.2228 48.1977 23.8066C47.6619 24.3687 46.9547 24.6498 46.0759 24.6498C45.1329 24.6498 44.415 24.4336 43.922 24.0012C43.4505 23.5687 43.2148 23.0066 43.2148 22.3147C43.2148 21.5796 43.3648 20.9742 43.6648 20.4985C43.9863 20.0229 44.3828 19.6229 44.8543 19.2986C44.4685 19.2986 44.1256 19.3742 43.8256 19.5256C43.5684 19.6337 43.3219 19.785 43.0862 19.9796C42.8504 20.1742 42.6468 20.4012 42.4754 20.6607C42.3039 20.8985 42.1646 21.1688 42.0574 21.4715C41.9717 21.7742 41.9288 22.0877 41.9288 22.412V32.1415C41.9288 33.1793 42.1432 33.882 42.5718 34.2496C43.0004 34.6172 43.7077 34.8009 44.6936 34.8009V35.482C44.2006 35.4604 43.4612 35.4388 42.4754 35.4171C41.5109 35.3739 40.5143 35.3523 39.4856 35.3523C38.5211 35.3523 37.546 35.3739 36.5601 35.4171C35.5742 35.4388 34.8348 35.4604 34.3419 35.482V34.8009C35.0063 34.8009 35.4671 34.6388 35.7242 34.3145C36.0029 33.9901 36.1422 33.3739 36.1422 32.4658V22.185C36.1422 21.212 36.0136 20.4985 35.7564 20.0445C35.4992 19.5688 35.0277 19.331 34.3419 19.331V18.6499C35.0277 18.7148 35.6921 18.7472 36.3351 18.7472C37.4067 18.7472 38.4033 18.7148 39.3248 18.6499C40.2678 18.5634 41.1358 18.4445 41.9288 18.2932V20.6283C42.2075 20.0661 42.5504 19.6121 42.9576 19.2661C43.3648 18.8986 43.8256 18.6283 44.3399 18.4553C44.8757 18.2824 45.4544 18.1959 46.0759 18.1959ZM57.8886 13.396V18.6499H61.0392V19.2986H57.8886V32.7577C57.8886 33.1685 57.9636 33.4712 58.1137 33.6658C58.2637 33.8388 58.5102 33.9253 58.8531 33.9253C59.0888 33.9253 59.3674 33.8604 59.6889 33.7307C60.0104 33.5793 60.3105 33.3307 60.5891 32.9848L61.0713 33.3739C60.6212 34.1523 60.0211 34.7793 59.271 35.255C58.5423 35.709 57.6207 35.936 56.5063 35.936C55.799 35.936 55.156 35.8387 54.5774 35.6442C54.0201 35.4712 53.5593 35.2009 53.195 34.8334C52.7235 34.3577 52.4234 33.7739 52.2949 33.0821C52.1663 32.3686 52.102 31.4497 52.102 30.3254V19.2986H49.6587V18.6499H52.102V14.823C53.2379 14.823 54.2666 14.7149 55.1882 14.4987C56.1312 14.2608 57.0313 13.8933 57.8886 13.396ZM66.8454 10.1204C67.9599 10.1204 68.8172 10.3582 69.4173 10.8339C70.0388 11.2879 70.3496 11.9798 70.3496 12.9095C70.3496 13.8392 70.0388 14.5419 69.4173 15.0176C68.8172 15.4716 67.9599 15.6986 66.8454 15.6986C65.7309 15.6986 64.8629 15.4716 64.2414 15.0176C63.6413 14.5419 63.3413 13.8392 63.3413 12.9095C63.3413 11.9798 63.6413 11.2879 64.2414 10.8339C64.8629 10.3582 65.7309 10.1204 66.8454 10.1204ZM69.9316 18.2932V32.4658C69.9316 33.3739 70.0602 33.9901 70.3174 34.3145C70.596 34.6388 71.0675 34.8009 71.7319 34.8009V35.482C71.3033 35.4604 70.6603 35.4388 69.803 35.4171C68.9458 35.3739 68.067 35.3523 67.1669 35.3523C66.2667 35.3523 65.3559 35.3739 64.4343 35.4171C63.5127 35.4388 62.8162 35.4604 62.3447 35.482V34.8009C63.0091 34.8009 63.4699 34.6388 63.727 34.3145C64.0057 33.9901 64.145 33.3739 64.145 32.4658V22.185C64.145 21.212 64.0164 20.4985 63.7592 20.0445C63.502 19.5688 63.0305 19.331 62.3447 19.331V18.6499C63.0305 18.7148 63.6949 18.7472 64.3379 18.7472C65.4095 18.7472 66.4061 18.7148 67.3276 18.6499C68.2706 18.5634 69.1386 18.4445 69.9316 18.2932ZM86.2976 18.1959C87.2837 18.1959 88.0552 18.3256 88.6125 18.5851C89.1911 18.8229 89.6305 19.1256 89.9305 19.4931C90.252 19.8823 90.4878 20.4012 90.6378 21.0499C90.7878 21.6985 90.8628 22.5742 90.8628 23.6768V32.4658C90.8628 33.3739 90.9914 33.9901 91.2486 34.3145C91.5272 34.6388 91.9987 34.8009 92.6631 34.8009V35.482C92.2345 35.4604 91.5808 35.4388 90.7021 35.4171C89.8448 35.3739 88.9982 35.3523 88.1624 35.3523C87.2622 35.3523 86.3833 35.3739 85.526 35.4171C84.6687 35.4388 84.0258 35.4604 83.5971 35.482V34.8009C84.1544 34.8009 84.5401 34.6388 84.7545 34.3145C84.9688 33.9901 85.0759 33.3739 85.0759 32.4658V21.9255C85.0759 21.4715 85.0224 21.0931 84.9152 20.7904C84.808 20.4877 84.6366 20.2607 84.4008 20.1093C84.1865 19.958 83.8865 19.8823 83.5007 19.8823C83.1149 19.8823 82.7398 19.9796 82.3755 20.1742C82.0326 20.3688 81.7432 20.6499 81.5075 21.0174C81.2932 21.3634 81.186 21.7634 81.186 22.2174V32.4658C81.186 33.3739 81.2932 33.9901 81.5075 34.3145C81.7432 34.6388 82.129 34.8009 82.6648 34.8009V35.482C82.2576 35.4604 81.6575 35.4388 80.8645 35.4171C80.0715 35.3739 79.2571 35.3523 78.4213 35.3523C77.5211 35.3523 76.6103 35.3739 75.6887 35.4171C74.7671 35.4388 74.0706 35.4604 73.599 35.482V34.8009C74.2634 34.8009 74.7242 34.6388 74.9814 34.3145C75.26 33.9901 75.3994 33.3739 75.3994 32.4658V22.185C75.3994 21.212 75.2708 20.4985 75.0136 20.0445C74.7564 19.5688 74.2849 19.331 73.599 19.331V18.6499C74.2849 18.7148 74.9493 18.7472 75.5922 18.7472C76.6638 18.7472 77.6604 18.7148 78.582 18.6499C79.525 18.5634 80.393 18.4445 81.186 18.2932V20.6283C81.7004 19.7634 82.3862 19.1472 83.2435 18.7796C84.1222 18.3905 85.1402 18.1959 86.2976 18.1959ZM98.8356 10.1204C99.95 10.1204 100.807 10.3582 101.407 10.8339C102.029 11.2879 102.34 11.9798 102.34 12.9095C102.34 13.8392 102.029 14.5419 101.407 15.0176C100.807 15.4716 99.95 15.6986 98.8356 15.6986C97.7211 15.6986 96.8531 15.4716 96.2316 15.0176C95.6315 14.5419 95.3314 13.8392 95.3314 12.9095C95.3314 11.9798 95.6315 11.2879 96.2316 10.8339C96.8531 10.3582 97.7211 10.1204 98.8356 10.1204ZM101.922 18.2932V32.4658C101.922 33.3739 102.05 33.9901 102.308 34.3145C102.586 34.6388 103.058 34.8009 103.722 34.8009V35.482C103.293 35.4604 102.65 35.4388 101.793 35.4171C100.936 35.3739 100.057 35.3523 99.1571 35.3523C98.2569 35.3523 97.346 35.3739 96.4245 35.4171C95.5029 35.4388 94.8063 35.4604 94.3348 35.482V34.8009C94.9992 34.8009 95.46 34.6388 95.7172 34.3145C95.9958 33.9901 96.1351 33.3739 96.1351 32.4658V22.185C96.1351 21.212 96.0065 20.4985 95.7494 20.0445C95.4922 19.5688 95.0207 19.331 94.3348 19.331V18.6499C95.0207 18.7148 95.6851 18.7472 96.328 18.7472C97.3996 18.7472 98.3962 18.7148 99.3178 18.6499C100.261 18.5634 101.129 18.4445 101.922 18.2932ZM113.015 13.396V18.6499H116.166V19.2986H113.015V32.7577C113.015 33.1685 113.09 33.4712 113.24 33.6658C113.39 33.8388 113.637 33.9253 113.98 33.9253C114.215 33.9253 114.494 33.8604 114.816 33.7307C115.137 33.5793 115.437 33.3307 115.716 32.9848L116.198 33.3739C115.748 34.1523 115.148 34.7793 114.398 35.255C113.669 35.709 112.747 35.936 111.633 35.936C110.926 35.936 110.283 35.8387 109.704 35.6442C109.147 35.4712 108.686 35.2009 108.322 34.8334C107.85 34.3577 107.55 33.7739 107.421 33.0821C107.293 32.3686 107.229 31.4497 107.229 30.3254V19.2986H104.785V18.6499H107.229V14.823C108.364 14.823 109.393 14.7149 110.315 14.4987C111.258 14.2608 112.158 13.8933 113.015 13.396ZM133.674 18.6499V19.331C133.267 19.4823 132.871 19.785 132.485 20.2391C132.12 20.6715 131.756 21.4174 131.392 22.4769L127.373 34.5415L125.734 38.336L118.018 21.1472C117.654 20.3256 117.311 19.8175 116.989 19.6229C116.668 19.4283 116.389 19.331 116.153 19.331V18.6499C117.011 18.7148 117.9 18.7688 118.822 18.8121C119.743 18.8337 120.601 18.8445 121.394 18.8445C122.401 18.8445 123.269 18.8229 123.998 18.7796C124.726 18.7364 125.412 18.6932 126.055 18.6499V19.331C125.669 19.331 125.305 19.3526 124.962 19.3958C124.619 19.4391 124.373 19.5472 124.223 19.7202C124.073 19.8715 124.083 20.1526 124.255 20.5634L128.37 30.4226L128.016 30.6821L129.559 25.9146C130.052 24.4444 130.256 23.2336 130.17 22.2823C130.106 21.3309 129.859 20.6174 129.431 20.1418C129.002 19.6445 128.466 19.3742 127.823 19.331V18.6499C128.123 18.6715 128.488 18.6932 128.916 18.7148C129.345 18.7364 129.763 18.758 130.17 18.7796C130.599 18.7796 130.942 18.7796 131.199 18.7796C131.585 18.7796 132.035 18.7688 132.549 18.7472C133.063 18.7256 133.438 18.6932 133.674 18.6499ZM127.373 34.5415L126.023 38.4657C125.83 39.0063 125.616 39.4711 125.38 39.8603C125.166 40.2495 124.908 40.563 124.608 40.8008C124.33 41.017 123.955 41.2008 123.483 41.3521C123.033 41.5035 122.412 41.5792 121.619 41.5792C121.019 41.5792 120.376 41.4819 119.69 41.2873C119.025 41.0927 118.447 40.7684 117.954 40.3143C117.482 39.8819 117.247 39.2873 117.247 38.5306C117.247 37.7738 117.536 37.1685 118.115 36.7144C118.693 36.2604 119.454 36.0333 120.397 36.0333C121.276 36.0333 121.972 36.2279 122.487 36.6171C123.022 37.0279 123.29 37.6333 123.29 38.4333C123.29 38.909 123.119 39.3846 122.776 39.8603C122.455 40.336 121.929 40.6927 121.201 40.9305C121.372 40.9522 121.565 40.963 121.779 40.963C121.994 40.9846 122.165 40.9954 122.294 40.9954C122.98 40.9954 123.59 40.7792 124.126 40.3468C124.662 39.936 125.069 39.2873 125.348 38.4009L126.473 34.8658L127.373 34.5415Z" fill="white"/>
<path d="M68.1729 30.2698H124.049" stroke="white" stroke-width="1.5"/>
</g>
<g clip-path="url(#clip1_158_185)" filter="url(#filter0_f_158_185)">
<path d="M23.5599 12.5203L31.3398 32.7577C31.6398 33.4929 31.9613 34.0226 32.3042 34.3469C32.6471 34.6496 32.9579 34.8117 33.2365 34.8334V35.482C32.465 35.4388 31.5648 35.4171 30.5361 35.4171C29.5073 35.3955 28.4572 35.3847 27.3855 35.3847C26.2925 35.3847 25.2638 35.3955 24.2993 35.4171C23.3349 35.4171 22.5633 35.4388 21.9847 35.482V34.8334C23.0777 34.7901 23.7635 34.6063 24.0421 34.282C24.3422 33.9361 24.2779 33.2118 23.8493 32.1091L18.7055 17.7418L19.3485 16.6067L14.9121 28.2497C14.3763 29.6551 14.0441 30.7902 13.9155 31.6551C13.8083 32.4983 13.8619 33.1469 14.0762 33.601C14.2905 34.055 14.6334 34.3685 15.105 34.5415C15.5765 34.7144 16.1337 34.8117 16.7767 34.8334V35.482C15.9837 35.4388 15.2657 35.4171 14.6227 35.4171C14.0012 35.3955 13.3154 35.3847 12.5653 35.3847C12.158 35.3847 11.7187 35.3955 11.2472 35.4171C10.7971 35.4171 10.4113 35.4388 10.0898 35.482V34.8334C10.5828 34.7469 11.065 34.4334 11.5365 33.8928C12.0294 33.3307 12.5331 32.3794 13.0475 31.0389L20.1844 12.5203C20.6987 12.5636 21.256 12.5852 21.8561 12.5852C22.4776 12.5852 23.0455 12.5636 23.5599 12.5203ZM24.6851 26.1417V26.7903H15.105L15.4264 26.1417H24.6851ZM46.0759 18.1959C46.8475 18.1959 47.4476 18.3688 47.8762 18.7148C48.3049 19.0391 48.6049 19.4607 48.7764 19.9796C48.9478 20.4769 49.0336 20.9742 49.0336 21.4715C49.0336 22.4444 48.755 23.2228 48.1977 23.8066C47.6619 24.3687 46.9547 24.6498 46.0759 24.6498C45.1329 24.6498 44.415 24.4336 43.922 24.0012C43.4505 23.5687 43.2148 23.0066 43.2148 22.3147C43.2148 21.5796 43.3648 20.9742 43.6648 20.4985C43.9863 20.0229 44.3828 19.6229 44.8543 19.2986C44.4685 19.2986 44.1256 19.3742 43.8256 19.5256C43.5684 19.6337 43.3219 19.785 43.0862 19.9796C42.8504 20.1742 42.6468 20.4012 42.4754 20.6607C42.3039 20.8985 42.1646 21.1688 42.0574 21.4715C41.9717 21.7742 41.9288 22.0877 41.9288 22.412V32.1415C41.9288 33.1793 42.1432 33.882 42.5718 34.2496C43.0004 34.6172 43.7077 34.8009 44.6936 34.8009V35.482C44.2006 35.4604 43.4612 35.4388 42.4754 35.4171C41.5109 35.3739 40.5143 35.3523 39.4856 35.3523C38.5211 35.3523 37.546 35.3739 36.5601 35.4171C35.5742 35.4388 34.8348 35.4604 34.3419 35.482V34.8009C35.0063 34.8009 35.4671 34.6388 35.7242 34.3145C36.0029 33.9901 36.1422 33.3739 36.1422 32.4658V22.185C36.1422 21.212 36.0136 20.4985 35.7564 20.0445C35.4992 19.5688 35.0277 19.331 34.3419 19.331V18.6499C35.0277 18.7148 35.6921 18.7472 36.3351 18.7472C37.4067 18.7472 38.4033 18.7148 39.3248 18.6499C40.2678 18.5634 41.1358 18.4445 41.9288 18.2932V20.6283C42.2075 20.0661 42.5504 19.6121 42.9576 19.2661C43.3648 18.8986 43.8256 18.6283 44.3399 18.4553C44.8757 18.2824 45.4544 18.1959 46.0759 18.1959ZM57.8886 13.396V18.6499H61.0392V19.2986H57.8886V32.7577C57.8886 33.1685 57.9636 33.4712 58.1137 33.6658C58.2637 33.8388 58.5102 33.9253 58.8531 33.9253C59.0888 33.9253 59.3674 33.8604 59.6889 33.7307C60.0104 33.5793 60.3105 33.3307 60.5891 32.9848L61.0713 33.3739C60.6212 34.1523 60.0211 34.7793 59.271 35.255C58.5423 35.709 57.6207 35.936 56.5063 35.936C55.799 35.936 55.156 35.8387 54.5774 35.6442C54.0201 35.4712 53.5593 35.2009 53.195 34.8334C52.7235 34.3577 52.4234 33.7739 52.2949 33.0821C52.1663 32.3686 52.102 31.4497 52.102 30.3254V19.2986H49.6587V18.6499H52.102V14.823C53.2379 14.823 54.2666 14.7149 55.1882 14.4987C56.1312 14.2608 57.0313 13.8933 57.8886 13.396ZM66.8454 10.1204C67.9599 10.1204 68.8172 10.3582 69.4173 10.8339C70.0388 11.2879 70.3496 11.9798 70.3496 12.9095C70.3496 13.8392 70.0388 14.5419 69.4173 15.0176C68.8172 15.4716 67.9599 15.6986 66.8454 15.6986C65.7309 15.6986 64.8629 15.4716 64.2414 15.0176C63.6413 14.5419 63.3413 13.8392 63.3413 12.9095C63.3413 11.9798 63.6413 11.2879 64.2414 10.8339C64.8629 10.3582 65.7309 10.1204 66.8454 10.1204ZM69.9316 18.2932V32.4658C69.9316 33.3739 70.0602 33.9901 70.3174 34.3145C70.596 34.6388 71.0675 34.8009 71.7319 34.8009V35.482C71.3033 35.4604 70.6603 35.4388 69.803 35.4171C68.9458 35.3739 68.067 35.3523 67.1669 35.3523C66.2667 35.3523 65.3559 35.3739 64.4343 35.4171C63.5127 35.4388 62.8162 35.4604 62.3447 35.482V34.8009C63.0091 34.8009 63.4699 34.6388 63.727 34.3145C64.0057 33.9901 64.145 33.3739 64.145 32.4658V22.185C64.145 21.212 64.0164 20.4985 63.7592 20.0445C63.502 19.5688 63.0305 19.331 62.3447 19.331V18.6499C63.0305 18.7148 63.6949 18.7472 64.3379 18.7472C65.4095 18.7472 66.4061 18.7148 67.3276 18.6499C68.2706 18.5634 69.1386 18.4445 69.9316 18.2932ZM86.2976 18.1959C87.2837 18.1959 88.0552 18.3256 88.6125 18.5851C89.1911 18.8229 89.6305 19.1256 89.9305 19.4931C90.252 19.8823 90.4878 20.4012 90.6378 21.0499C90.7878 21.6985 90.8628 22.5742 90.8628 23.6768V32.4658C90.8628 33.3739 90.9914 33.9901 91.2486 34.3145C91.5272 34.6388 91.9987 34.8009 92.6631 34.8009V35.482C92.2345 35.4604 91.5808 35.4388 90.7021 35.4171C89.8448 35.3739 88.9982 35.3523 88.1624 35.3523C87.2622 35.3523 86.3833 35.3739 85.526 35.4171C84.6687 35.4388 84.0258 35.4604 83.5971 35.482V34.8009C84.1544 34.8009 84.5401 34.6388 84.7545 34.3145C84.9688 33.9901 85.0759 33.3739 85.0759 32.4658V21.9255C85.0759 21.4715 85.0224 21.0931 84.9152 20.7904C84.808 20.4877 84.6366 20.2607 84.4008 20.1093C84.1865 19.958 83.8865 19.8823 83.5007 19.8823C83.1149 19.8823 82.7398 19.9796 82.3755 20.1742C82.0326 20.3688 81.7432 20.6499 81.5075 21.0174C81.2932 21.3634 81.186 21.7634 81.186 22.2174V32.4658C81.186 33.3739 81.2932 33.9901 81.5075 34.3145C81.7432 34.6388 82.129 34.8009 82.6648 34.8009V35.482C82.2576 35.4604 81.6575 35.4388 80.8645 35.4171C80.0715 35.3739 79.2571 35.3523 78.4213 35.3523C77.5211 35.3523 76.6103 35.3739 75.6887 35.4171C74.7671 35.4388 74.0706 35.4604 73.599 35.482V34.8009C74.2634 34.8009 74.7242 34.6388 74.9814 34.3145C75.26 33.9901 75.3994 33.3739 75.3994 32.4658V22.185C75.3994 21.212 75.2708 20.4985 75.0136 20.0445C74.7564 19.5688 74.2849 19.331 73.599 19.331V18.6499C74.2849 18.7148 74.9493 18.7472 75.5922 18.7472C76.6638 18.7472 77.6604 18.7148 78.582 18.6499C79.525 18.5634 80.393 18.4445 81.186 18.2932V20.6283C81.7004 19.7634 82.3862 19.1472 83.2435 18.7796C84.1222 18.3905 85.1402 18.1959 86.2976 18.1959ZM98.8356 10.1204C99.95 10.1204 100.807 10.3582 101.407 10.8339C102.029 11.2879 102.34 11.9798 102.34 12.9095C102.34 13.8392 102.029 14.5419 101.407 15.0176C100.807 15.4716 99.95 15.6986 98.8356 15.6986C97.7211 15.6986 96.8531 15.4716 96.2316 15.0176C95.6315 14.5419 95.3314 13.8392 95.3314 12.9095C95.3314 11.9798 95.6315 11.2879 96.2316 10.8339C96.8531 10.3582 97.7211 10.1204 98.8356 10.1204ZM101.922 18.2932V32.4658C101.922 33.3739 102.05 33.9901 102.308 34.3145C102.586 34.6388 103.058 34.8009 103.722 34.8009V35.482C103.293 35.4604 102.65 35.4388 101.793 35.4171C100.936 35.3739 100.057 35.3523 99.1571 35.3523C98.2569 35.3523 97.346 35.3739 96.4245 35.4171C95.5029 35.4388 94.8063 35.4604 94.3348 35.482V34.8009C94.9992 34.8009 95.46 34.6388 95.7172 34.3145C95.9958 33.9901 96.1351 33.3739 96.1351 32.4658V22.185C96.1351 21.212 96.0065 20.4985 95.7494 20.0445C95.4922 19.5688 95.0207 19.331 94.3348 19.331V18.6499C95.0207 18.7148 95.6851 18.7472 96.328 18.7472C97.3996 18.7472 98.3962 18.7148 99.3178 18.6499C100.261 18.5634 101.129 18.4445 101.922 18.2932ZM113.015 13.396V18.6499H116.166V19.2986H113.015V32.7577C113.015 33.1685 113.09 33.4712 113.24 33.6658C113.39 33.8388 113.637 33.9253 113.98 33.9253C114.215 33.9253 114.494 33.8604 114.816 33.7307C115.137 33.5793 115.437 33.3307 115.716 32.9848L116.198 33.3739C115.748 34.1523 115.148 34.7793 114.398 35.255C113.669 35.709 112.747 35.936 111.633 35.936C110.926 35.936 110.283 35.8387 109.704 35.6442C109.147 35.4712 108.686 35.2009 108.322 34.8334C107.85 34.3577 107.55 33.7739 107.421 33.0821C107.293 32.3686 107.229 31.4497 107.229 30.3254V19.2986H104.785V18.6499H107.229V14.823C108.364 14.823 109.393 14.7149 110.315 14.4987C111.258 14.2608 112.158 13.8933 113.015 13.396ZM133.674 18.6499V19.331C133.267 19.4823 132.871 19.785 132.485 20.2391C132.12 20.6715 131.756 21.4174 131.392 22.4769L127.373 34.5415L125.734 38.336L118.018 21.1472C117.654 20.3256 117.311 19.8175 116.989 19.6229C116.668 19.4283 116.389 19.331 116.153 19.331V18.6499C117.011 18.7148 117.9 18.7688 118.822 18.8121C119.743 18.8337 120.601 18.8445 121.394 18.8445C122.401 18.8445 123.269 18.8229 123.998 18.7796C124.726 18.7364 125.412 18.6932 126.055 18.6499V19.331C125.669 19.331 125.305 19.3526 124.962 19.3958C124.619 19.4391 124.373 19.5472 124.223 19.7202C124.073 19.8715 124.083 20.1526 124.255 20.5634L128.37 30.4226L128.016 30.6821L129.559 25.9146C130.052 24.4444 130.256 23.2336 130.17 22.2823C130.106 21.3309 129.859 20.6174 129.431 20.1418C129.002 19.6445 128.466 19.3742 127.823 19.331V18.6499C128.123 18.6715 128.488 18.6932 128.916 18.7148C129.345 18.7364 129.763 18.758 130.17 18.7796C130.599 18.7796 130.942 18.7796 131.199 18.7796C131.585 18.7796 132.035 18.7688 132.549 18.7472C133.063 18.7256 133.438 18.6932 133.674 18.6499ZM127.373 34.5415L126.023 38.4657C125.83 39.0063 125.616 39.4711 125.38 39.8603C125.166 40.2495 124.908 40.563 124.608 40.8008C124.33 41.017 123.955 41.2008 123.483 41.3521C123.033 41.5035 122.412 41.5792 121.619 41.5792C121.019 41.5792 120.376 41.4819 119.69 41.2873C119.025 41.0927 118.447 40.7684 117.954 40.3143C117.482 39.8819 117.247 39.2873 117.247 38.5306C117.247 37.7738 117.536 37.1685 118.115 36.7144C118.693 36.2604 119.454 36.0333 120.397 36.0333C121.276 36.0333 121.972 36.2279 122.487 36.6171C123.022 37.0279 123.29 37.6333 123.29 38.4333C123.29 38.909 123.119 39.3846 122.776 39.8603C122.455 40.336 121.929 40.6927 121.201 40.9305C121.372 40.9522 121.565 40.963 121.779 40.963C121.994 40.9846 122.165 40.9954 122.294 40.9954C122.98 40.9954 123.59 40.7792 124.126 40.3468C124.662 39.936 125.069 39.2873 125.348 38.4009L126.473 34.8658L127.373 34.5415Z" fill="white" fill-opacity="0.7"/>
<path d="M68.1729 30.2698H124.049" stroke="white" stroke-opacity="0.7" stroke-width="1.5"/>
</g>
<defs>
<filter id="filter0_f_158_185" x="0" y="0" width="144" height="51.6597" filterUnits="userSpaceOnUse" color-interpolation-filters="sRGB">
<feFlood flood-opacity="0" result="BackgroundImageFix"/>
<feBlend mode="normal" in="SourceGraphic" in2="BackgroundImageFix" result="shape"/>
<feGaussianBlur stdDeviation="5" result="effect1_foregroundBlur_158_185"/>
</filter>
<clipPath id="clip0_158_185">
<rect width="124" height="31.6596" fill="white" transform="translate(10 10)"/>
</clipPath>
<clipPath id="clip1_158_185">
<rect width="124" height="31.6596" fill="white" transform="translate(10 10)"/>
</clipPath>
</defs>
</svg>
