<svg width="279" height="57" viewBox="0 0 279 57" fill="none" xmlns="http://www.w3.org/2000/svg">
<path d="M66.7429 0H0V57H66.7429V0Z" fill="white"/>
<path d="M24.2366 22.8447C24.2366 23.0593 24.1654 23.2381 24.023 23.3812C23.8984 23.5064 23.7293 23.5689 23.5157 23.5689C23.2844 23.5689 23.1064 23.5064 22.9818 23.3812C22.8572 23.2381 22.7949 23.0593 22.7949 22.8447C22.7949 22.6122 22.8572 22.4334 22.9818 22.3082C23.1242 22.1831 23.3022 22.1205 23.5157 22.1205C23.7471 22.1205 23.9251 22.192 24.0497 22.3351C24.1743 22.4602 24.2366 22.6301 24.2366 22.8447ZM24.2366 22.8179C24.2366 22.3529 24.4679 22.1205 24.9307 22.1205C25.1443 22.1205 25.3133 22.1831 25.4379 22.3082C25.5803 22.4334 25.6515 22.6033 25.6515 22.8179C25.6515 23.3186 25.4201 23.5689 24.9574 23.5689C24.7438 23.5689 24.5658 23.5064 24.4234 23.3812C24.2988 23.256 24.2366 23.0861 24.2366 22.8715V22.8179ZM24.2366 24.2664C24.2366 23.8014 24.4679 23.5689 24.9307 23.5689C25.1443 23.5689 25.3133 23.6315 25.4379 23.7567C25.5803 23.8819 25.6515 24.0518 25.6515 24.2664C25.6515 24.7671 25.4201 25.0174 24.9574 25.0174C24.7438 25.0174 24.5658 24.9548 24.4234 24.8296C24.2988 24.7045 24.2366 24.5346 24.2366 24.32V24.2664ZM22.7949 24.2932C22.7949 24.0607 22.8572 23.8819 22.9818 23.7567C23.1242 23.6315 23.3022 23.5689 23.5157 23.5689C23.7471 23.5689 23.9251 23.6405 24.0497 23.7835C24.1743 23.9087 24.2366 24.0786 24.2366 24.2932C24.2366 24.5078 24.1654 24.6866 24.023 24.8296C23.8984 24.9548 23.7293 25.0174 23.5157 25.0174C23.2844 25.0174 23.1064 24.9548 22.9818 24.8296C22.8572 24.6866 22.7949 24.5078 22.7949 24.2932ZM21.3533 24.2932C21.3533 24.7581 21.1219 24.9906 20.6591 24.9906C20.1608 24.9906 19.9116 24.7581 19.9116 24.2932C19.9116 24.0786 19.9739 23.9087 20.0985 23.7835C20.2231 23.6405 20.3922 23.5689 20.6057 23.5689C21.1041 23.5689 21.3533 23.8014 21.3533 24.2664V24.2932ZM21.3533 24.2932C21.3533 24.0786 21.4156 23.9087 21.5401 23.7835C21.6647 23.6405 21.8338 23.5689 22.0474 23.5689C22.5457 23.5689 22.7949 23.8014 22.7949 24.2664V24.2932C22.7949 24.7581 22.5635 24.9906 22.1008 24.9906C21.6024 24.9906 21.3533 24.7581 21.3533 24.2932ZM18.47 25.7148C18.47 25.9294 18.3988 26.1082 18.2564 26.2513C18.1318 26.3765 17.9627 26.4391 17.7492 26.4391C17.5178 26.4391 17.3398 26.3765 17.2152 26.2513C17.0906 26.1082 17.0283 25.9294 17.0283 25.7148C17.0283 25.4823 17.0906 25.3035 17.2152 25.1784C17.3576 25.0532 17.5356 24.9906 17.7492 24.9906C17.9805 24.9906 18.1585 25.0621 18.2831 25.2052C18.4077 25.3304 18.47 25.5002 18.47 25.7148ZM19.9116 25.7148C19.9116 25.9294 19.8404 26.1082 19.698 26.2513C19.5735 26.3765 19.4044 26.4391 19.1908 26.4391C18.9594 26.4391 18.7814 26.3765 18.6569 26.2513C18.5323 26.1082 18.47 25.9294 18.47 25.7148C18.47 25.4823 18.5323 25.3035 18.6569 25.1784C18.7992 25.0532 18.9772 24.9906 19.1908 24.9906C19.4222 24.9906 19.6002 25.0621 19.7247 25.2052C19.8493 25.3304 19.9116 25.5002 19.9116 25.7148ZM21.3533 25.7148C21.3533 25.4823 21.4156 25.3035 21.5401 25.1784C21.6825 25.0532 21.8605 24.9906 22.0741 24.9906C22.3055 24.9906 22.4834 25.0621 22.608 25.2052C22.7326 25.3304 22.7949 25.5002 22.7949 25.7148C22.7949 25.9294 22.7237 26.1082 22.5813 26.2513C22.4567 26.3765 22.2877 26.4391 22.0741 26.4391C21.8427 26.4391 21.6647 26.3765 21.5401 26.2513C21.4156 26.1082 21.3533 25.9294 21.3533 25.7148ZM20.6324 26.4391C20.4011 26.4391 20.2231 26.3765 20.0985 26.2513C19.9739 26.1082 19.9116 25.9294 19.9116 25.7148C19.9116 25.4823 19.9739 25.3035 20.0985 25.1784C20.2409 25.0532 20.4189 24.9906 20.6324 24.9906C20.8638 24.9906 21.0418 25.0621 21.1664 25.2052C21.291 25.3304 21.3533 25.5002 21.3533 25.7148C21.3533 25.9294 21.2821 26.1082 21.1397 26.2513C21.0151 26.3765 20.846 26.4391 20.6324 26.4391ZM15.6134 27.1633C15.6134 27.3779 15.5422 27.5567 15.3998 27.6998C15.2752 27.8249 15.1061 27.8875 14.8926 27.8875C14.6612 27.8875 14.4832 27.8249 14.3586 27.6998C14.234 27.5567 14.1717 27.3779 14.1717 27.1633C14.1717 26.9308 14.234 26.752 14.3586 26.6268C14.501 26.5016 14.679 26.4391 14.8926 26.4391C15.1239 26.4391 15.3019 26.5106 15.4265 26.6536C15.5511 26.7788 15.6134 26.9487 15.6134 27.1633ZM17.0283 27.1901C17.0283 27.6551 16.797 27.8875 16.3342 27.8875C16.1206 27.8875 15.9426 27.8249 15.8003 27.6998C15.6757 27.5746 15.6134 27.4047 15.6134 27.1901C15.6134 26.6894 15.8448 26.4391 16.3075 26.4391C16.5211 26.4391 16.6902 26.5016 16.8148 26.6268C16.9571 26.752 17.0283 26.9219 17.0283 27.1365V27.1901ZM18.47 27.1633C18.47 26.9308 18.5323 26.752 18.6569 26.6268C18.7992 26.5016 18.9772 26.4391 19.1908 26.4391C19.4222 26.4391 19.6002 26.5106 19.7247 26.6536C19.8493 26.7788 19.9116 26.9487 19.9116 27.1633C19.9116 27.3779 19.8404 27.5567 19.698 27.6998C19.5735 27.8249 19.4044 27.8875 19.1908 27.8875C18.9594 27.8875 18.7814 27.8249 18.6569 27.6998C18.5323 27.5567 18.47 27.3779 18.47 27.1633ZM17.7492 27.8875C17.5178 27.8875 17.3398 27.8249 17.2152 27.6998C17.0906 27.5567 17.0283 27.3779 17.0283 27.1633C17.0283 26.9308 17.0906 26.752 17.2152 26.6268C17.3576 26.5016 17.5356 26.4391 17.7492 26.4391C17.9805 26.4391 18.1585 26.5106 18.2831 26.6536C18.4077 26.7788 18.47 26.9487 18.47 27.1633C18.47 27.3779 18.3988 27.5567 18.2564 27.6998C18.1318 27.8249 17.9627 27.8875 17.7492 27.8875ZM12.7301 28.6118C12.7301 28.8264 12.6589 29.0052 12.5165 29.1482C12.3919 29.2734 12.2228 29.336 12.0093 29.336C11.7779 29.336 11.5999 29.2734 11.4753 29.1482C11.3507 29.0052 11.2884 28.8264 11.2884 28.6118C11.2884 28.3793 11.3507 28.2005 11.4753 28.0753C11.6177 27.9501 11.7957 27.8875 12.0093 27.8875C12.2406 27.8875 12.4186 27.9591 12.5432 28.1021C12.6678 28.2273 12.7301 28.3972 12.7301 28.6118ZM14.1717 28.6118C14.1717 28.8264 14.1005 29.0052 13.9582 29.1482C13.8336 29.2734 13.6645 29.336 13.4509 29.336C13.2195 29.336 13.0416 29.2734 12.917 29.1482C12.7924 29.0052 12.7301 28.8264 12.7301 28.6118C12.7301 28.3793 12.7924 28.2005 12.917 28.0753C13.0594 27.9501 13.2373 27.8875 13.4509 27.8875C13.6823 27.8875 13.8603 27.9591 13.9849 28.1021C14.1094 28.2273 14.1717 28.3972 14.1717 28.6118ZM17.0283 28.6386C17.0283 29.1035 16.797 29.336 16.3342 29.336C16.1206 29.336 15.9426 29.2734 15.8003 29.1482C15.6757 29.0231 15.6134 28.8532 15.6134 28.6386C15.6134 28.1379 15.8448 27.8875 16.3075 27.8875C16.5211 27.8875 16.6902 27.9501 16.8148 28.0753C16.9571 28.2005 17.0283 28.3704 17.0283 28.5849V28.6386ZM15.6134 28.6118C15.6134 28.8264 15.5422 29.0052 15.3998 29.1482C15.2752 29.2734 15.1061 29.336 14.8926 29.336C14.6612 29.336 14.4832 29.2734 14.3586 29.1482C14.234 29.0052 14.1717 28.8264 14.1717 28.6118C14.1717 28.3793 14.234 28.2005 14.3586 28.0753C14.501 27.9501 14.679 27.8875 14.8926 27.8875C15.1239 27.8875 15.3019 27.9591 15.4265 28.1021C15.5511 28.2273 15.6134 28.3972 15.6134 28.6118ZM12.7301 30.0602C12.7301 30.2748 12.6589 30.4536 12.5165 30.5967C12.3919 30.7219 12.2228 30.7845 12.0093 30.7845C11.7779 30.7845 11.5999 30.7219 11.4753 30.5967C11.3507 30.4536 11.2884 30.2748 11.2884 30.0602C11.2884 29.8278 11.3507 29.6489 11.4753 29.5238C11.6177 29.3986 11.7957 29.336 12.0093 29.336C12.2406 29.336 12.4186 29.4075 12.5432 29.5506C12.6678 29.6758 12.7301 29.8456 12.7301 30.0602ZM14.1717 30.0602C14.1717 30.2748 14.1005 30.4536 13.9582 30.5967C13.8336 30.7219 13.6645 30.7845 13.4509 30.7845C13.2195 30.7845 13.0416 30.7219 12.917 30.5967C12.7924 30.4536 12.7301 30.2748 12.7301 30.0602C12.7301 29.8278 12.7924 29.6489 12.917 29.5238C13.0594 29.3986 13.2373 29.336 13.4509 29.336C13.6823 29.336 13.8603 29.4075 13.9849 29.5506C14.1094 29.6758 14.1717 29.8456 14.1717 30.0602ZM17.0283 30.0871C17.0283 30.552 16.797 30.7845 16.3342 30.7845C16.1206 30.7845 15.9426 30.7219 15.8003 30.5967C15.6757 30.4715 15.6134 30.3016 15.6134 30.0871C15.6134 29.5864 15.8448 29.336 16.3075 29.336C16.5211 29.336 16.6902 29.3986 16.8148 29.5238C16.9571 29.6489 17.0283 29.8188 17.0283 30.0334V30.0871ZM15.6134 30.0602C15.6134 30.2748 15.5422 30.4536 15.3998 30.5967C15.2752 30.7219 15.1061 30.7845 14.8926 30.7845C14.6612 30.7845 14.4832 30.7219 14.3586 30.5967C14.234 30.4536 14.1717 30.2748 14.1717 30.0602C14.1717 29.8278 14.234 29.6489 14.3586 29.5238C14.501 29.3986 14.679 29.336 14.8926 29.336C15.1239 29.336 15.3019 29.4075 15.4265 29.5506C15.5511 29.6758 15.6134 29.8456 15.6134 30.0602ZM15.6134 31.5087C15.6134 31.7233 15.5422 31.9021 15.3998 32.0452C15.2752 32.1703 15.1061 32.2329 14.8926 32.2329C14.6612 32.2329 14.4832 32.1703 14.3586 32.0452C14.234 31.9021 14.1717 31.7233 14.1717 31.5087C14.1717 31.2762 14.234 31.0974 14.3586 30.9722C14.501 30.8471 14.679 30.7845 14.8926 30.7845C15.1239 30.7845 15.3019 30.856 15.4265 30.9991C15.5511 31.1242 15.6134 31.2941 15.6134 31.5087ZM17.0283 31.5355C17.0283 32.0005 16.797 32.2329 16.3342 32.2329C16.1206 32.2329 15.9426 32.1703 15.8003 32.0452C15.6757 31.92 15.6134 31.7501 15.6134 31.5355C15.6134 31.0348 15.8448 30.7845 16.3075 30.7845C16.5211 30.7845 16.6902 30.8471 16.8148 30.9722C16.9571 31.0974 17.0283 31.2673 17.0283 31.4819V31.5355ZM18.47 31.5087C18.47 31.2762 18.5323 31.0974 18.6569 30.9722C18.7992 30.8471 18.9772 30.7845 19.1908 30.7845C19.4222 30.7845 19.6002 30.856 19.7247 30.9991C19.8493 31.1242 19.9116 31.2941 19.9116 31.5087C19.9116 31.7233 19.8404 31.9021 19.698 32.0452C19.5735 32.1703 19.4044 32.2329 19.1908 32.2329C18.9594 32.2329 18.7814 32.1703 18.6569 32.0452C18.5323 31.9021 18.47 31.7233 18.47 31.5087ZM17.7492 32.2329C17.5178 32.2329 17.3398 32.1703 17.2152 32.0452C17.0906 31.9021 17.0283 31.7233 17.0283 31.5087C17.0283 31.2762 17.0906 31.0974 17.2152 30.9722C17.3576 30.8471 17.5356 30.7845 17.7492 30.7845C17.9805 30.7845 18.1585 30.856 18.2831 30.9991C18.4077 31.1242 18.47 31.2941 18.47 31.5087C18.47 31.7233 18.3988 31.9021 18.2564 32.0452C18.1318 32.1703 17.9627 32.2329 17.7492 32.2329ZM21.3533 32.9572C21.3533 32.7247 21.4156 32.5459 21.5401 32.4207C21.6825 32.2955 21.8605 32.2329 22.0741 32.2329C22.3055 32.2329 22.4834 32.3045 22.608 32.4475C22.7326 32.5727 22.7949 32.7426 22.7949 32.9572C22.7949 33.1718 22.7237 33.3506 22.5813 33.4936C22.4567 33.6188 22.2877 33.6814 22.0741 33.6814C21.8427 33.6814 21.6647 33.6188 21.5401 33.4936C21.4156 33.3506 21.3533 33.1718 21.3533 32.9572ZM19.9116 32.9572C19.9116 32.7247 19.9739 32.5459 20.0985 32.4207C20.2409 32.2955 20.4189 32.2329 20.6324 32.2329C20.8638 32.2329 21.0418 32.3045 21.1664 32.4475C21.291 32.5727 21.3533 32.7426 21.3533 32.9572C21.3533 33.1718 21.2821 33.3506 21.1397 33.4936C21.0151 33.6188 20.846 33.6814 20.6324 33.6814C20.4011 33.6814 20.2231 33.6188 20.0985 33.4936C19.9739 33.3506 19.9116 33.1718 19.9116 32.9572ZM18.47 32.9572C18.47 33.1718 18.3988 33.3506 18.2564 33.4936C18.1318 33.6188 17.9627 33.6814 17.7492 33.6814C17.5178 33.6814 17.3398 33.6188 17.2152 33.4936C17.0906 33.3506 17.0283 33.1718 17.0283 32.9572C17.0283 32.7247 17.0906 32.5459 17.2152 32.4207C17.3576 32.2955 17.5356 32.2329 17.7492 32.2329C17.9805 32.2329 18.1585 32.3045 18.2831 32.4475C18.4077 32.5727 18.47 32.7426 18.47 32.9572ZM19.1908 33.6814C18.9594 33.6814 18.7814 33.6188 18.6569 33.4936C18.5323 33.3506 18.47 33.1718 18.47 32.9572C18.47 32.7247 18.5323 32.5459 18.6569 32.4207C18.7992 32.2955 18.9772 32.2329 19.1908 32.2329C19.4222 32.2329 19.6002 32.3045 19.7247 32.4475C19.8493 32.5727 19.9116 32.7426 19.9116 32.9572C19.9116 33.1718 19.8404 33.3506 19.698 33.4936C19.5735 33.6188 19.4044 33.6814 19.1908 33.6814ZM24.2366 34.352C24.2366 33.8871 24.4679 33.6546 24.9307 33.6546C25.1443 33.6546 25.3133 33.7172 25.4379 33.8424C25.5803 33.9675 25.6515 34.1374 25.6515 34.352C25.6515 34.8527 25.4201 35.1031 24.9574 35.1031C24.7438 35.1031 24.5658 35.0405 24.4234 34.9153C24.2988 34.7901 24.2366 34.6202 24.2366 34.4056V34.352ZM24.2366 34.3788C24.2366 34.5934 24.1654 34.7722 24.023 34.9153C23.8984 35.0405 23.7293 35.1031 23.5157 35.1031C23.2844 35.1031 23.1064 35.0405 22.9818 34.9153C22.8572 34.7722 22.7949 34.5934 22.7949 34.3788C22.7949 34.1464 22.8572 33.9675 22.9818 33.8424C23.1242 33.7172 23.3022 33.6546 23.5157 33.6546C23.7471 33.6546 23.9251 33.7261 24.0497 33.8692C24.1743 33.9944 24.2366 34.1642 24.2366 34.3788ZM21.3533 34.4056C21.3533 34.8706 21.1219 35.1031 20.6591 35.1031C20.1608 35.1031 19.9116 34.8706 19.9116 34.4056C19.9116 34.1911 19.9739 34.0212 20.0985 33.896C20.2231 33.7529 20.3922 33.6814 20.6057 33.6814C21.1041 33.6814 21.3533 33.9139 21.3533 34.3788V34.4056ZM22.7949 34.4056C22.7949 34.8706 22.5635 35.1031 22.1008 35.1031C21.6024 35.1031 21.3533 34.8706 21.3533 34.4056C21.3533 34.1911 21.4156 34.0212 21.5401 33.896C21.6647 33.7529 21.8338 33.6814 22.0474 33.6814C22.5457 33.6814 22.7949 33.9139 22.7949 34.3788V34.4056ZM24.2366 35.8273C24.2366 36.0419 24.1654 36.2207 24.023 36.3638C23.8984 36.4889 23.7293 36.5515 23.5157 36.5515C23.2844 36.5515 23.1064 36.4889 22.9818 36.3638C22.8572 36.2207 22.7949 36.0419 22.7949 35.8273C22.7949 35.5948 22.8572 35.416 22.9818 35.2908C23.1242 35.1656 23.3022 35.1031 23.5157 35.1031C23.7471 35.1031 23.9251 35.1746 24.0497 35.3176C24.1743 35.4428 24.2366 35.6127 24.2366 35.8273ZM24.2366 35.8005C24.2366 35.3355 24.4679 35.1031 24.9307 35.1031C25.1443 35.1031 25.3133 35.1656 25.4379 35.2908C25.5803 35.416 25.6515 35.5859 25.6515 35.8005C25.6515 36.3012 25.4201 36.5515 24.9574 36.5515C24.7438 36.5515 24.5658 36.4889 24.4234 36.3638C24.2988 36.2386 24.2366 36.0687 24.2366 35.8541V35.8005ZM37.9001 19.1967C37.6865 19.1967 37.5085 19.1341 37.3662 19.0089C37.2416 18.8838 37.1793 18.7049 37.1793 18.4725C37.1793 18.2579 37.2416 18.088 37.3662 17.9628C37.4907 17.8198 37.6687 17.7482 37.9001 17.7482C38.1137 17.7482 38.2828 17.8108 38.4073 17.936C38.5497 18.0612 38.6209 18.24 38.6209 18.4725C38.6209 18.6871 38.5497 18.8659 38.4073 19.0089C38.2828 19.1341 38.1137 19.1967 37.9001 19.1967ZM36.4585 19.1967C36.2449 19.1967 36.0669 19.1341 35.9245 19.0089C35.7999 18.8838 35.7376 18.7049 35.7376 18.4725C35.7376 18.2579 35.7999 18.088 35.9245 17.9628C36.0491 17.8198 36.2271 17.7482 36.4585 17.7482C36.672 17.7482 36.8411 17.8108 36.9657 17.936C37.1081 18.0612 37.1793 18.24 37.1793 18.4725C37.1793 18.6871 37.1081 18.8659 36.9657 19.0089C36.8411 19.1341 36.672 19.1967 36.4585 19.1967ZM37.8734 20.6184C37.6598 20.6184 37.4907 20.5558 37.3662 20.4306C37.2416 20.2875 37.1793 20.1087 37.1793 19.8941C37.1793 19.4292 37.4285 19.1967 37.9268 19.1967C38.1404 19.1967 38.3095 19.2682 38.434 19.4113C38.5586 19.5365 38.6209 19.7064 38.6209 19.9209C38.6209 20.3859 38.3895 20.6184 37.9268 20.6184H37.8734ZM36.4318 20.6184C36.2182 20.6184 36.0491 20.5558 35.9245 20.4306C35.7999 20.2875 35.7376 20.1087 35.7376 19.8941C35.7376 19.4292 35.9868 19.1967 36.4851 19.1967C36.6987 19.1967 36.8678 19.2682 36.9924 19.4113C37.117 19.5365 37.1793 19.7064 37.1793 19.9209C37.1793 20.3859 36.9479 20.6184 36.4851 20.6184H36.4318ZM36.4585 22.0936C36.2449 22.0936 36.0669 22.0311 35.9245 21.9059C35.7999 21.7807 35.7376 21.5929 35.7376 21.3426C35.7376 21.128 35.7999 20.9581 35.9245 20.8329C36.0491 20.6899 36.2271 20.6184 36.4585 20.6184C36.672 20.6184 36.8411 20.6809 36.9657 20.8061C37.1081 20.9313 37.1793 21.1191 37.1793 21.3694C37.1793 21.584 37.1081 21.7628 36.9657 21.9059C36.8411 22.0311 36.672 22.0936 36.4585 22.0936ZM35.0168 22.0936C34.8032 22.0936 34.6252 22.0311 34.4829 21.9059C34.3583 21.7807 34.296 21.5929 34.296 21.3426C34.296 21.128 34.3583 20.9581 34.4829 20.8329C34.6075 20.6899 34.7854 20.6184 35.0168 20.6184C35.2304 20.6184 35.3995 20.6809 35.5241 20.8061C35.6664 20.9313 35.7376 21.1191 35.7376 21.3694C35.7376 21.584 35.6664 21.7628 35.5241 21.9059C35.3995 22.0311 35.2304 22.0936 35.0168 22.0936ZM36.4585 23.5421C36.2449 23.5421 36.0669 23.4795 35.9245 23.3544C35.7999 23.2292 35.7376 23.0504 35.7376 22.8179C35.7376 22.6033 35.7999 22.4334 35.9245 22.3082C36.0491 22.1652 36.2271 22.0936 36.4585 22.0936C36.672 22.0936 36.8411 22.1562 36.9657 22.2814C37.1081 22.4066 37.1793 22.5854 37.1793 22.8179C37.1793 23.0325 37.1081 23.2113 36.9657 23.3544C36.8411 23.4795 36.672 23.5421 36.4585 23.5421ZM35.0168 23.5421C34.8032 23.5421 34.6252 23.4795 34.4829 23.3544C34.3583 23.2292 34.296 23.0504 34.296 22.8179C34.296 22.6033 34.3583 22.4334 34.4829 22.3082C34.6075 22.1652 34.7854 22.0936 35.0168 22.0936C35.2304 22.0936 35.3995 22.1562 35.5241 22.2814C35.6664 22.4066 35.7376 22.5854 35.7376 22.8179C35.7376 23.0325 35.6664 23.2113 35.5241 23.3544C35.3995 23.4795 35.2304 23.5421 35.0168 23.5421ZM34.9901 24.9638C34.7765 24.9638 34.6075 24.9012 34.4829 24.776C34.3583 24.6329 34.296 24.4541 34.296 24.2395C34.296 23.7746 34.5452 23.5421 35.0435 23.5421C35.2571 23.5421 35.4262 23.6136 35.5508 23.7567C35.6753 23.8819 35.7376 24.0518 35.7376 24.2664C35.7376 24.7313 35.5063 24.9638 35.0435 24.9638H34.9901ZM33.5485 24.9638C33.3349 24.9638 33.1657 24.9012 33.0412 24.776C32.9166 24.6329 32.8543 24.4541 32.8543 24.2395C32.8543 23.7746 33.1035 23.5421 33.6019 23.5421C33.8154 23.5421 33.9845 23.6136 34.1091 23.7567C34.2337 23.8819 34.296 24.0518 34.296 24.2664C34.296 24.7313 34.0646 24.9638 33.6019 24.9638H33.5485ZM35.0168 26.4391C34.8032 26.4391 34.6252 26.3765 34.4829 26.2513C34.3583 26.1261 34.296 25.9384 34.296 25.688C34.296 25.4734 34.3583 25.3035 34.4829 25.1784C34.6075 25.0353 34.7854 24.9638 35.0168 24.9638C35.2304 24.9638 35.3995 25.0264 35.5241 25.1515C35.6664 25.2767 35.7376 25.4645 35.7376 25.7148C35.7376 25.9294 35.6664 26.1082 35.5241 26.2513C35.3995 26.3765 35.2304 26.4391 35.0168 26.4391ZM33.5752 26.4391C33.3616 26.4391 33.1836 26.3765 33.0412 26.2513C32.9166 26.1261 32.8543 25.9384 32.8543 25.688C32.8543 25.4734 32.9166 25.3035 33.0412 25.1784C33.1657 25.0353 33.3438 24.9638 33.5752 24.9638C33.7887 24.9638 33.9578 25.0264 34.0824 25.1515C34.2248 25.2767 34.296 25.4645 34.296 25.7148C34.296 25.9294 34.2248 26.1082 34.0824 26.2513C33.9578 26.3765 33.7887 26.4391 33.5752 26.4391ZM33.5752 27.8875C33.3616 27.8875 33.1836 27.8249 33.0412 27.6998C32.9166 27.5746 32.8543 27.3958 32.8543 27.1633C32.8543 26.9487 32.9166 26.7788 33.0412 26.6536C33.1657 26.5106 33.3438 26.4391 33.5752 26.4391C33.7887 26.4391 33.9578 26.5016 34.0824 26.6268C34.2248 26.752 34.296 26.9308 34.296 27.1633C34.296 27.3779 34.2248 27.5567 34.0824 27.6998C33.9578 27.8249 33.7887 27.8875 33.5752 27.8875ZM32.1335 27.8875C31.9199 27.8875 31.742 27.8249 31.5996 27.6998C31.475 27.5746 31.4127 27.3958 31.4127 27.1633C31.4127 26.9487 31.475 26.7788 31.5996 26.6536C31.7242 26.5106 31.9021 26.4391 32.1335 26.4391C32.3471 26.4391 32.5162 26.5016 32.6408 26.6268C32.7831 26.752 32.8543 26.9308 32.8543 27.1633C32.8543 27.3779 32.7831 27.5567 32.6408 27.6998C32.5162 27.8249 32.3471 27.8875 32.1335 27.8875ZM33.5485 29.3092C33.3349 29.3092 33.1657 29.2466 33.0412 29.1214C32.9166 28.9784 32.8543 28.7995 32.8543 28.5849C32.8543 28.12 33.1035 27.8875 33.6019 27.8875C33.8154 27.8875 33.9845 27.9591 34.1091 28.1021C34.2337 28.2273 34.296 28.3972 34.296 28.6118C34.296 29.0767 34.0646 29.3092 33.6019 29.3092H33.5485ZM32.1068 29.3092C31.8932 29.3092 31.7242 29.2466 31.5996 29.1214C31.475 28.9784 31.4127 28.7995 31.4127 28.5849C31.4127 28.12 31.6619 27.8875 32.1602 27.8875C32.3738 27.8875 32.5429 27.9591 32.6675 28.1021C32.792 28.2273 32.8543 28.3972 32.8543 28.6118C32.8543 29.0767 32.623 29.3092 32.1602 29.3092H32.1068ZM33.5752 30.7845C33.3616 30.7845 33.1836 30.7219 33.0412 30.5967C32.9166 30.4715 32.8543 30.2838 32.8543 30.0334C32.8543 29.8188 32.9166 29.6489 33.0412 29.5238C33.1657 29.3807 33.3438 29.3092 33.5752 29.3092C33.7887 29.3092 33.9578 29.3718 34.0824 29.4969C34.2248 29.6221 34.296 29.8099 34.296 30.0602C34.296 30.2748 34.2248 30.4536 34.0824 30.5967C33.9578 30.7219 33.7887 30.7845 33.5752 30.7845ZM32.1335 30.7845C31.9199 30.7845 31.742 30.7219 31.5996 30.5967C31.475 30.4715 31.4127 30.2838 31.4127 30.0334C31.4127 29.8188 31.475 29.6489 31.5996 29.5238C31.7242 29.3807 31.9021 29.3092 32.1335 29.3092C32.3471 29.3092 32.5162 29.3718 32.6408 29.4969C32.7831 29.6221 32.8543 29.8099 32.8543 30.0602C32.8543 30.2748 32.7831 30.4536 32.6408 30.5967C32.5162 30.7219 32.3471 30.7845 32.1335 30.7845ZM32.1335 32.2329C31.9199 32.2329 31.742 32.1703 31.5996 32.0452C31.475 31.92 31.4127 31.7412 31.4127 31.5087C31.4127 31.2941 31.475 31.1242 31.5996 30.9991C31.7242 30.856 31.9021 30.7845 32.1335 30.7845C32.3471 30.7845 32.5162 30.8471 32.6408 30.9722C32.7831 31.0974 32.8543 31.2762 32.8543 31.5087C32.8543 31.7233 32.7831 31.9021 32.6408 32.0452C32.5162 32.1703 32.3471 32.2329 32.1335 32.2329ZM30.6919 32.2329C30.4783 32.2329 30.3003 32.1703 30.1579 32.0452C30.0333 31.92 29.971 31.7412 29.971 31.5087C29.971 31.2941 30.0333 31.1242 30.1579 30.9991C30.2825 30.856 30.4605 30.7845 30.6919 30.7845C30.9054 30.7845 31.0745 30.8471 31.1991 30.9722C31.3415 31.0974 31.4127 31.2762 31.4127 31.5087C31.4127 31.7233 31.3415 31.9021 31.1991 32.0452C31.0745 32.1703 30.9054 32.2329 30.6919 32.2329ZM32.1335 33.6814C31.9199 33.6814 31.742 33.6188 31.5996 33.4936C31.475 33.3685 31.4127 33.1896 31.4127 32.9572C31.4127 32.7426 31.475 32.5727 31.5996 32.4475C31.7242 32.3045 31.9021 32.2329 32.1335 32.2329C32.3471 32.2329 32.5162 32.2955 32.6408 32.4207C32.7831 32.5459 32.8543 32.7247 32.8543 32.9572C32.8543 33.1718 32.7831 33.3506 32.6408 33.4936C32.5162 33.6188 32.3471 33.6814 32.1335 33.6814ZM30.6919 33.6814C30.4783 33.6814 30.3003 33.6188 30.1579 33.4936C30.0333 33.3685 29.971 33.1896 29.971 32.9572C29.971 32.7426 30.0333 32.5727 30.1579 32.4475C30.2825 32.3045 30.4605 32.2329 30.6919 32.2329C30.9054 32.2329 31.0745 32.2955 31.1991 32.4207C31.3415 32.5459 31.4127 32.7247 31.4127 32.9572C31.4127 33.1718 31.3415 33.3506 31.1991 33.4936C31.0745 33.6188 30.9054 33.6814 30.6919 33.6814ZM30.6919 35.1299C30.4783 35.1299 30.3003 35.0673 30.1579 34.9421C30.0333 34.8169 29.971 34.6381 29.971 34.4056C29.971 34.1911 30.0333 34.0212 30.1579 33.896C30.2825 33.7529 30.4605 33.6814 30.6919 33.6814C30.9054 33.6814 31.0745 33.744 31.1991 33.8692C31.3415 33.9944 31.4127 34.1732 31.4127 34.4056C31.4127 34.6202 31.3415 34.7991 31.1991 34.9421C31.0745 35.0673 30.9054 35.1299 30.6919 35.1299ZM29.2502 35.1299C29.0366 35.1299 28.8587 35.0673 28.7163 34.9421C28.5917 34.8169 28.5294 34.6381 28.5294 34.4056C28.5294 34.1911 28.5917 34.0212 28.7163 33.896C28.8409 33.7529 29.0189 33.6814 29.2502 33.6814C29.4638 33.6814 29.6329 33.744 29.7575 33.8692C29.8999 33.9944 29.971 34.1732 29.971 34.4056C29.971 34.6202 29.8999 34.7991 29.7575 34.9421C29.6329 35.0673 29.4638 35.1299 29.2502 35.1299ZM30.6919 36.5784C30.4783 36.5784 30.3003 36.5158 30.1579 36.3906C30.0333 36.2654 29.971 36.0866 29.971 35.8541C29.971 35.6395 30.0333 35.4696 30.1579 35.3445C30.2825 35.2014 30.4605 35.1299 30.6919 35.1299C30.9054 35.1299 31.0745 35.1925 31.1991 35.3176C31.3415 35.4428 31.4127 35.6217 31.4127 35.8541C31.4127 36.0687 31.3415 36.2475 31.1991 36.3906C31.0745 36.5158 30.9054 36.5784 30.6919 36.5784ZM29.2502 36.5784C29.0366 36.5784 28.8587 36.5158 28.7163 36.3906C28.5917 36.2654 28.5294 36.0866 28.5294 35.8541C28.5294 35.6395 28.5917 35.4696 28.7163 35.3445C28.8409 35.2014 29.0189 35.1299 29.2502 35.1299C29.4638 35.1299 29.6329 35.1925 29.7575 35.3176C29.8999 35.4428 29.971 35.6217 29.971 35.8541C29.971 36.0687 29.8999 36.2475 29.7575 36.3906C29.6329 36.5158 29.4638 36.5784 29.2502 36.5784ZM29.2502 38.0268C29.0366 38.0268 28.8587 37.9642 28.7163 37.8391C28.5917 37.7139 28.5294 37.5351 28.5294 37.3026C28.5294 37.088 28.5917 36.9181 28.7163 36.7929C28.8409 36.6499 29.0189 36.5784 29.2502 36.5784C29.4638 36.5784 29.6329 36.6409 29.7575 36.7661C29.8999 36.8913 29.971 37.0701 29.971 37.3026C29.971 37.5172 29.8999 37.696 29.7575 37.8391C29.6329 37.9642 29.4638 38.0268 29.2502 38.0268ZM27.8086 38.0268C27.595 38.0268 27.417 37.9642 27.2746 37.8391C27.15 37.7139 27.0878 37.5351 27.0878 37.3026C27.0878 37.088 27.15 36.9181 27.2746 36.7929C27.3992 36.6499 27.5772 36.5784 27.8086 36.5784C28.0222 36.5784 28.1912 36.6409 28.3158 36.7661C28.4582 36.8913 28.5294 37.0701 28.5294 37.3026C28.5294 37.5172 28.4582 37.696 28.3158 37.8391C28.1912 37.9642 28.0222 38.0268 27.8086 38.0268ZM29.2502 39.4753C29.0366 39.4753 28.8587 39.4127 28.7163 39.2875C28.5917 39.1624 28.5294 38.9835 28.5294 38.7511C28.5294 38.5365 28.5917 38.3576 28.7163 38.2146C28.8409 38.0894 29.0189 38.0268 29.2502 38.0268C29.4638 38.0268 29.6329 38.0894 29.7575 38.2146C29.8999 38.3398 29.971 38.5186 29.971 38.7511C29.971 38.9656 29.8999 39.1355 29.7575 39.2607C29.6329 39.4038 29.4638 39.4753 29.2502 39.4753ZM27.8086 39.4753C27.595 39.4753 27.417 39.4127 27.2746 39.2875C27.15 39.1624 27.0878 38.9835 27.0878 38.7511C27.0878 38.5365 27.15 38.3576 27.2746 38.2146C27.3992 38.0894 27.5772 38.0268 27.8086 38.0268C28.0222 38.0268 28.1912 38.0894 28.3158 38.2146C28.4582 38.3398 28.5294 38.5186 28.5294 38.7511C28.5294 38.9656 28.4582 39.1355 28.3158 39.2607C28.1912 39.4038 28.0222 39.4753 27.8086 39.4753ZM42.2071 23.5689C41.9935 23.5689 41.8155 23.5064 41.6731 23.3812C41.5485 23.2381 41.4862 23.0593 41.4862 22.8447C41.4862 22.6122 41.5485 22.4334 41.6731 22.3082C41.8155 22.1831 41.9935 22.1205 42.2071 22.1205C42.4384 22.1205 42.6164 22.192 42.741 22.3351C42.8656 22.4602 42.9279 22.6301 42.9279 22.8447C42.9279 23.0772 42.8567 23.256 42.7143 23.3812C42.5897 23.5064 42.4206 23.5689 42.2071 23.5689ZM40.7921 22.1205C41.2549 22.1205 41.4862 22.3529 41.4862 22.8179C41.4862 23.3186 41.2549 23.5689 40.7921 23.5689C40.5785 23.5689 40.4006 23.5064 40.2582 23.3812C40.1336 23.256 40.0713 23.0861 40.0713 22.8715C40.0713 22.3708 40.3027 22.1205 40.7654 22.1205H40.7921ZM40.7921 23.5689C41.2549 23.5689 41.4862 23.8014 41.4862 24.2664C41.4862 24.7671 41.2549 25.0174 40.7921 25.0174C40.5785 25.0174 40.4006 24.9548 40.2582 24.8296C40.1336 24.7045 40.0713 24.5346 40.0713 24.32C40.0713 23.8193 40.3027 23.5689 40.7654 23.5689H40.7921ZM42.2071 25.0174C41.9935 25.0174 41.8155 24.9548 41.6731 24.8296C41.5485 24.6866 41.4862 24.5078 41.4862 24.2932C41.4862 24.0607 41.5485 23.8819 41.6731 23.7567C41.8155 23.6315 41.9935 23.5689 42.2071 23.5689C42.4384 23.5689 42.6164 23.6405 42.741 23.7835C42.8656 23.9087 42.9279 24.0786 42.9279 24.2932C42.9279 24.5256 42.8567 24.7045 42.7143 24.8296C42.5897 24.9548 42.4206 25.0174 42.2071 25.0174ZM45.0637 24.9906C44.6009 24.9906 44.3695 24.7581 44.3695 24.2932C44.3695 24.0786 44.4318 23.9087 44.5564 23.7835C44.681 23.6405 44.8501 23.5689 45.0637 23.5689C45.562 23.5689 45.8112 23.8014 45.8112 24.2664C45.8112 24.4809 45.7489 24.6598 45.6243 24.8028C45.4997 24.928 45.3306 24.9906 45.1171 24.9906H45.0637ZM43.622 24.9906C43.1593 24.9906 42.9279 24.7581 42.9279 24.2932C42.9279 24.0786 42.9902 23.9087 43.1148 23.7835C43.2394 23.6405 43.4084 23.5689 43.622 23.5689C44.1204 23.5689 44.3695 23.8014 44.3695 24.2664C44.3695 24.4809 44.3072 24.6598 44.1827 24.8028C44.0581 24.928 43.889 24.9906 43.6754 24.9906H43.622ZM47.9737 26.4391C47.7601 26.4391 47.5821 26.3765 47.4397 26.2513C47.3151 26.1082 47.2528 25.9294 47.2528 25.7148C47.2528 25.4823 47.3151 25.3035 47.4397 25.1784C47.5821 25.0532 47.7601 24.9906 47.9737 24.9906C48.205 24.9906 48.383 25.0621 48.5076 25.2052C48.6322 25.3304 48.6945 25.5002 48.6945 25.7148C48.6945 25.9473 48.6233 26.1261 48.4809 26.2513C48.3563 26.3765 48.1872 26.4391 47.9737 26.4391ZM46.532 26.4391C46.3184 26.4391 46.1405 26.3765 45.9981 26.2513C45.8735 26.1082 45.8112 25.9294 45.8112 25.7148C45.8112 25.4823 45.8735 25.3035 45.9981 25.1784C46.1405 25.0532 46.3184 24.9906 46.532 24.9906C46.7634 24.9906 46.9414 25.0621 47.066 25.2052C47.1905 25.3304 47.2528 25.5002 47.2528 25.7148C47.2528 25.9473 47.1816 26.1261 47.0393 26.2513C46.9147 26.3765 46.7456 26.4391 46.532 26.4391ZM43.6487 26.4391C43.4351 26.4391 43.2572 26.3765 43.1148 26.2513C42.9902 26.1082 42.9279 25.9294 42.9279 25.7148C42.9279 25.4823 42.9902 25.3035 43.1148 25.1784C43.2572 25.0532 43.4351 24.9906 43.6487 24.9906C43.8801 24.9906 44.0581 25.0621 44.1827 25.2052C44.3072 25.3304 44.3695 25.5002 44.3695 25.7148C44.3695 25.9473 44.2983 26.1261 44.156 26.2513C44.0314 26.3765 43.8623 26.4391 43.6487 26.4391ZM45.0904 26.4391C44.8768 26.4391 44.6988 26.3765 44.5564 26.2513C44.4318 26.1082 44.3695 25.9294 44.3695 25.7148C44.3695 25.4823 44.4318 25.3035 44.5564 25.1784C44.6988 25.0532 44.8768 24.9906 45.0904 24.9906C45.3217 24.9906 45.4997 25.0621 45.6243 25.2052C45.7489 25.3304 45.8112 25.5002 45.8112 25.7148C45.8112 25.9473 45.74 26.1261 45.5976 26.2513C45.473 26.3765 45.3039 26.4391 45.0904 26.4391ZM50.8302 27.8875C50.6167 27.8875 50.4387 27.8249 50.2963 27.6998C50.1717 27.5567 50.1094 27.3779 50.1094 27.1633C50.1094 26.9308 50.1717 26.752 50.2963 26.6268C50.4387 26.5016 50.6167 26.4391 50.8302 26.4391C51.0616 26.4391 51.2396 26.5106 51.3642 26.6536C51.4888 26.7788 51.5511 26.9487 51.5511 27.1633C51.5511 27.3958 51.4799 27.5746 51.3375 27.6998C51.2129 27.8249 51.0438 27.8875 50.8302 27.8875ZM49.3886 27.8875C48.9258 27.8875 48.6945 27.6551 48.6945 27.1901C48.6945 26.6894 48.9258 26.4391 49.3886 26.4391C49.6022 26.4391 49.7713 26.5016 49.8958 26.6268C50.0382 26.752 50.1094 26.9219 50.1094 27.1365C50.1094 27.6372 49.8781 27.8875 49.4153 27.8875H49.3886ZM46.532 27.8875C46.3184 27.8875 46.1405 27.8249 45.9981 27.6998C45.8735 27.5567 45.8112 27.3779 45.8112 27.1633C45.8112 26.9308 45.8735 26.752 45.9981 26.6268C46.1405 26.5016 46.3184 26.4391 46.532 26.4391C46.7634 26.4391 46.9414 26.5106 47.066 26.6536C47.1905 26.7788 47.2528 26.9487 47.2528 27.1633C47.2528 27.3958 47.1816 27.5746 47.0393 27.6998C46.9147 27.8249 46.7456 27.8875 46.532 27.8875ZM47.9737 27.8875C47.7601 27.8875 47.5821 27.8249 47.4397 27.6998C47.3151 27.5567 47.2528 27.3779 47.2528 27.1633C47.2528 26.9308 47.3151 26.752 47.4397 26.6268C47.5821 26.5016 47.7601 26.4391 47.9737 26.4391C48.205 26.4391 48.383 26.5106 48.5076 26.6536C48.6322 26.7788 48.6945 26.9487 48.6945 27.1633C48.6945 27.3958 48.6233 27.5746 48.4809 27.6998C48.3563 27.8249 48.1872 27.8875 47.9737 27.8875ZM53.7135 29.336C53.5 29.336 53.322 29.2734 53.1796 29.1482C53.055 29.0052 52.9927 28.8264 52.9927 28.6118C52.9927 28.3793 53.055 28.2005 53.1796 28.0753C53.322 27.9501 53.5 27.8875 53.7135 27.8875C53.9449 27.8875 54.1229 27.9591 54.2475 28.1021C54.3721 28.2273 54.4344 28.3972 54.4344 28.6118C54.4344 28.8442 54.3632 29.0231 54.2208 29.1482C54.0962 29.2734 53.9271 29.336 53.7135 29.336ZM52.2719 29.336C52.0583 29.336 51.8803 29.2734 51.738 29.1482C51.6134 29.0052 51.5511 28.8264 51.5511 28.6118C51.5511 28.3793 51.6134 28.2005 51.738 28.0753C51.8803 27.9501 52.0583 27.8875 52.2719 27.8875C52.5033 27.8875 52.6813 27.9591 52.8058 28.1021C52.9304 28.2273 52.9927 28.3972 52.9927 28.6118C52.9927 28.8442 52.9215 29.0231 52.7791 29.1482C52.6546 29.2734 52.4855 29.336 52.2719 29.336ZM49.3886 29.336C48.9258 29.336 48.6945 29.1035 48.6945 28.6386C48.6945 28.1379 48.9258 27.8875 49.3886 27.8875C49.6022 27.8875 49.7713 27.9501 49.8958 28.0753C50.0382 28.2005 50.1094 28.3704 50.1094 28.5849C50.1094 29.0856 49.8781 29.336 49.4153 29.336H49.3886ZM50.8302 29.336C50.6167 29.336 50.4387 29.2734 50.2963 29.1482C50.1717 29.0052 50.1094 28.8264 50.1094 28.6118C50.1094 28.3793 50.1717 28.2005 50.2963 28.0753C50.4387 27.9501 50.6167 27.8875 50.8302 27.8875C51.0616 27.8875 51.2396 27.9591 51.3642 28.1021C51.4888 28.2273 51.5511 28.3972 51.5511 28.6118C51.5511 28.8442 51.4799 29.0231 51.3375 29.1482C51.2129 29.2734 51.0438 29.336 50.8302 29.336ZM53.7135 30.7845C53.5 30.7845 53.322 30.7219 53.1796 30.5967C53.055 30.4536 52.9927 30.2748 52.9927 30.0602C52.9927 29.8278 53.055 29.6489 53.1796 29.5238C53.322 29.3986 53.5 29.336 53.7135 29.336C53.9449 29.336 54.1229 29.4075 54.2475 29.5506C54.3721 29.6758 54.4344 29.8456 54.4344 30.0602C54.4344 30.2927 54.3632 30.4715 54.2208 30.5967C54.0962 30.7219 53.9271 30.7845 53.7135 30.7845ZM52.2719 30.7845C52.0583 30.7845 51.8803 30.7219 51.738 30.5967C51.6134 30.4536 51.5511 30.2748 51.5511 30.0602C51.5511 29.8278 51.6134 29.6489 51.738 29.5238C51.8803 29.3986 52.0583 29.336 52.2719 29.336C52.5033 29.336 52.6813 29.4075 52.8058 29.5506C52.9304 29.6758 52.9927 29.8456 52.9927 30.0602C52.9927 30.2927 52.9215 30.4715 52.7791 30.5967C52.6546 30.7219 52.4855 30.7845 52.2719 30.7845ZM49.3886 30.7845C48.9258 30.7845 48.6945 30.552 48.6945 30.0871C48.6945 29.5864 48.9258 29.336 49.3886 29.336C49.6022 29.336 49.7713 29.3986 49.8958 29.5238C50.0382 29.6489 50.1094 29.8188 50.1094 30.0334C50.1094 30.5341 49.8781 30.7845 49.4153 30.7845H49.3886ZM50.8302 30.7845C50.6167 30.7845 50.4387 30.7219 50.2963 30.5967C50.1717 30.4536 50.1094 30.2748 50.1094 30.0602C50.1094 29.8278 50.1717 29.6489 50.2963 29.5238C50.4387 29.3986 50.6167 29.336 50.8302 29.336C51.0616 29.336 51.2396 29.4075 51.3642 29.5506C51.4888 29.6758 51.5511 29.8456 51.5511 30.0602C51.5511 30.2927 51.4799 30.4715 51.3375 30.5967C51.2129 30.7219 51.0438 30.7845 50.8302 30.7845ZM50.8302 32.2329C50.6167 32.2329 50.4387 32.1703 50.2963 32.0452C50.1717 31.9021 50.1094 31.7233 50.1094 31.5087C50.1094 31.2762 50.1717 31.0974 50.2963 30.9722C50.4387 30.8471 50.6167 30.7845 50.8302 30.7845C51.0616 30.7845 51.2396 30.856 51.3642 30.9991C51.4888 31.1242 51.5511 31.2941 51.5511 31.5087C51.5511 31.7412 51.4799 31.92 51.3375 32.0452C51.2129 32.1703 51.0438 32.2329 50.8302 32.2329ZM49.3886 32.2329C48.9258 32.2329 48.6945 32.0005 48.6945 31.5355C48.6945 31.0348 48.9258 30.7845 49.3886 30.7845C49.6022 30.7845 49.7713 30.8471 49.8958 30.9722C50.0382 31.0974 50.1094 31.2673 50.1094 31.4819C50.1094 31.9826 49.8781 32.2329 49.4153 32.2329H49.3886ZM46.532 32.2329C46.3184 32.2329 46.1405 32.1703 45.9981 32.0452C45.8735 31.9021 45.8112 31.7233 45.8112 31.5087C45.8112 31.2762 45.8735 31.0974 45.9981 30.9722C46.1405 30.8471 46.3184 30.7845 46.532 30.7845C46.7634 30.7845 46.9414 30.856 47.066 30.9991C47.1905 31.1242 47.2528 31.2941 47.2528 31.5087C47.2528 31.7412 47.1816 31.92 47.0393 32.0452C46.9147 32.1703 46.7456 32.2329 46.532 32.2329ZM47.9737 32.2329C47.7601 32.2329 47.5821 32.1703 47.4397 32.0452C47.3151 31.9021 47.2528 31.7233 47.2528 31.5087C47.2528 31.2762 47.3151 31.0974 47.4397 30.9722C47.5821 30.8471 47.7601 30.7845 47.9737 30.7845C48.205 30.7845 48.383 30.856 48.5076 30.9991C48.6322 31.1242 48.6945 31.2941 48.6945 31.5087C48.6945 31.7412 48.6233 31.92 48.4809 32.0452C48.3563 32.1703 48.1872 32.2329 47.9737 32.2329ZM43.6487 33.6814C43.4351 33.6814 43.2572 33.6188 43.1148 33.4936C42.9902 33.3506 42.9279 33.1718 42.9279 32.9572C42.9279 32.7247 42.9902 32.5459 43.1148 32.4207C43.2572 32.2955 43.4351 32.2329 43.6487 32.2329C43.8801 32.2329 44.0581 32.3045 44.1827 32.4475C44.3072 32.5727 44.3695 32.7426 44.3695 32.9572C44.3695 33.1896 44.2983 33.3685 44.156 33.4936C44.0314 33.6188 43.8623 33.6814 43.6487 33.6814ZM45.0904 33.6814C44.8768 33.6814 44.6988 33.6188 44.5564 33.4936C44.4318 33.3506 44.3695 33.1718 44.3695 32.9572C44.3695 32.7247 44.4318 32.5459 44.5564 32.4207C44.6988 32.2955 44.8768 32.2329 45.0904 32.2329C45.3217 32.2329 45.4997 32.3045 45.6243 32.4475C45.7489 32.5727 45.8112 32.7426 45.8112 32.9572C45.8112 33.1896 45.74 33.3685 45.5976 33.4936C45.473 33.6188 45.3039 33.6814 45.0904 33.6814ZM47.9737 33.6814C47.7601 33.6814 47.5821 33.6188 47.4397 33.4936C47.3151 33.3506 47.2528 33.1718 47.2528 32.9572C47.2528 32.7247 47.3151 32.5459 47.4397 32.4207C47.5821 32.2955 47.7601 32.2329 47.9737 32.2329C48.205 32.2329 48.383 32.3045 48.5076 32.4475C48.6322 32.5727 48.6945 32.7426 48.6945 32.9572C48.6945 33.1896 48.6233 33.3685 48.4809 33.4936C48.3563 33.6188 48.1872 33.6814 47.9737 33.6814ZM46.532 33.6814C46.3184 33.6814 46.1405 33.6188 45.9981 33.4936C45.8735 33.3506 45.8112 33.1718 45.8112 32.9572C45.8112 32.7247 45.8735 32.5459 45.9981 32.4207C46.1405 32.2955 46.3184 32.2329 46.532 32.2329C46.7634 32.2329 46.9414 32.3045 47.066 32.4475C47.1905 32.5727 47.2528 32.7426 47.2528 32.9572C47.2528 33.1896 47.1816 33.3685 47.0393 33.4936C46.9147 33.6188 46.7456 33.6814 46.532 33.6814ZM40.7921 33.6546C41.2549 33.6546 41.4862 33.8871 41.4862 34.352C41.4862 34.8527 41.2549 35.1031 40.7921 35.1031C40.5785 35.1031 40.4006 35.0405 40.2582 34.9153C40.1336 34.7901 40.0713 34.6202 40.0713 34.4056C40.0713 33.9049 40.3027 33.6546 40.7654 33.6546H40.7921ZM42.2071 35.1031C41.9935 35.1031 41.8155 35.0405 41.6731 34.9153C41.5485 34.7722 41.4862 34.5934 41.4862 34.3788C41.4862 34.1464 41.5485 33.9675 41.6731 33.8424C41.8155 33.7172 41.9935 33.6546 42.2071 33.6546C42.4384 33.6546 42.6164 33.7261 42.741 33.8692C42.8656 33.9944 42.9279 34.1642 42.9279 34.3788C42.9279 34.6113 42.8567 34.7901 42.7143 34.9153C42.5897 35.0405 42.4206 35.1031 42.2071 35.1031ZM45.0637 35.1031C44.6009 35.1031 44.3695 34.8706 44.3695 34.4056C44.3695 34.1911 44.4318 34.0212 44.5564 33.896C44.681 33.7529 44.8501 33.6814 45.0637 33.6814C45.562 33.6814 45.8112 33.9139 45.8112 34.3788C45.8112 34.5934 45.7489 34.7722 45.6243 34.9153C45.4997 35.0405 45.3306 35.1031 45.1171 35.1031H45.0637ZM43.622 35.1031C43.1593 35.1031 42.9279 34.8706 42.9279 34.4056C42.9279 34.1911 42.9902 34.0212 43.1148 33.896C43.2394 33.7529 43.4084 33.6814 43.622 33.6814C44.1204 33.6814 44.3695 33.9139 44.3695 34.3788C44.3695 34.5934 44.3072 34.7722 44.1827 34.9153C44.0581 35.0405 43.889 35.1031 43.6754 35.1031H43.622ZM42.2071 36.5515C41.9935 36.5515 41.8155 36.4889 41.6731 36.3638C41.5485 36.2207 41.4862 36.0419 41.4862 35.8273C41.4862 35.5948 41.5485 35.416 41.6731 35.2908C41.8155 35.1656 41.9935 35.1031 42.2071 35.1031C42.4384 35.1031 42.6164 35.1746 42.741 35.3176C42.8656 35.4428 42.9279 35.6127 42.9279 35.8273C42.9279 36.0598 42.8567 36.2386 42.7143 36.3638C42.5897 36.4889 42.4206 36.5515 42.2071 36.5515ZM40.7921 35.1031C41.2549 35.1031 41.4862 35.3355 41.4862 35.8005C41.4862 36.3012 41.2549 36.5515 40.7921 36.5515C40.5785 36.5515 40.4006 36.4889 40.2582 36.3638C40.1336 36.2386 40.0713 36.0687 40.0713 35.8541C40.0713 35.3534 40.3027 35.1031 40.7654 35.1031H40.7921Z" fill="black"/>
<path d="M80.2561 13.0765H90.3209V14.5249H91.7358V15.9734H93.1775V17.4219H94.6191V27.5075H93.1775V28.956H91.7358V30.4045H90.3209V31.8529H80.2561V13.0765ZM83.1127 15.9734V28.956H88.8792V27.5075H90.3209V26.0591H91.7625V18.8704H90.3209V17.4219H88.8792V15.9734H83.1127ZM96.0552 13.0765H98.9385V31.8529H96.0552V13.0765ZM100.383 13.0765H113.332V15.9734H103.267V20.292H111.89V23.1889H103.267V28.956H113.332V31.8529H100.383V13.0765ZM114.775 13.0765H117.658V14.5249H119.1V17.4219H120.542V20.292H121.983V23.1889H124.866V20.292H126.308V17.4219H127.75V14.5249H129.191V13.0765H132.075V31.8529H129.191V20.292H127.75V23.1889H126.308V26.0859H124.866V28.9292H121.983V26.0859H120.542V23.1889H119.1V20.292H117.658V31.8529H114.775V13.0765ZM134.962 20.292H133.52V15.9734H134.962V14.5249H136.377V13.0765H145.027V14.5249H146.442V15.9734H147.883V18.8704H145V17.4219H143.585V15.9734H137.818V17.4219H136.377V18.8435H137.818V20.292H145.027V21.7405H146.442V23.1889H147.883V28.956H146.442V30.4045H145.027V31.8529H136.377V30.4045H134.962V28.956H133.52V26.0859H136.377V27.5075H137.818V28.956H143.585V27.5075H145.027V24.6374H143.612V23.1889H136.377V21.7405H134.962V20.292ZM157.323 13.0765H160.153V21.7405H167.362V13.0765H170.245V31.8529H167.362V24.6374H160.153V31.8529H157.323V13.0765ZM177.455 21.7405V24.6374H183.195V21.7405H181.754V17.4219H178.897V21.7405H177.455ZM174.572 28.956V31.8529H171.689V27.5075H173.13V24.6374H174.572V21.7405H176.014V17.4219H177.455V14.5249H178.897V13.0765H181.78V14.5249H183.195V17.4219H184.637V21.7405H186.079V24.6374H187.52V27.5075H188.962V31.8529H186.079V28.956H184.637V27.5344H176.014V28.956H174.572ZM191.823 27.5075H190.408V17.4219H191.823V14.5249H193.265V13.0765H201.914V14.5249H203.356V17.4219H204.798V20.292H201.914V18.8435H200.473V15.9734H194.706V18.8435H193.265V26.0591H194.706V28.956H200.473V26.0859H201.914V24.6374H204.798V27.5075H203.356V30.4045H201.914V31.8529H193.291V30.4045H191.823V27.5075ZM206.233 13.0765H209.117V20.292H210.558V18.8435H211.973V17.4219H213.415V15.9734H214.856V14.5249H216.298V13.0765H219.181V15.9734H217.74V17.4219H216.298V18.8704H214.856V20.292H213.415V21.7405H212V23.1889H213.415V24.6374H214.856V26.0591H216.298V27.5075H217.74V28.956H219.181V31.8529H216.298V30.4045H214.856V28.956H213.415V27.5075H211.973V26.0859H210.558V24.6374H209.117V31.8529H206.233V13.0765ZM220.625 13.0765H233.573V15.9734H223.508V21.7405H232.131V24.6374H223.508V31.8529H220.625V13.0765ZM235.016 13.0765H247.964V15.9734H237.899V20.292H246.523V23.1889H237.899V28.956H247.964V31.8529H235.016V13.0765ZM250.849 20.292H249.408V15.9734H250.849V14.5249H252.264V13.0765H260.914V14.5249H262.329V15.9734H263.771V18.8704H260.887V17.4219H259.472V15.9734H253.706V17.4219H252.264V18.8435H253.706V20.292H260.914V21.7405H262.329V23.1889H263.771V28.956H262.329V30.4045H260.914V31.8529H252.264V30.4045H250.849V28.956H249.408V26.0859H252.264V27.5075H253.706V28.956H259.472V27.5075H260.914V24.6374H259.499V23.1889H252.264V21.7405H250.849V20.292ZM263.799 13.0765H278.135V15.9734H272.422V31.8529H269.539V15.9734H263.799V13.0765Z" fill="white"/>
<path d="M82.6884 44.2644C81.1311 44.2644 79.9241 42.9892 79.9241 41.3306C79.9241 39.6798 81.1311 38.4124 82.6884 38.4124C84.09 38.4124 85.2113 39.3512 85.4215 40.736H84.5105C84.3547 39.8285 83.6228 39.1869 82.6962 39.1869C81.5905 39.1869 80.8118 40.0866 80.8118 41.3306C80.8118 42.5902 81.5905 43.4899 82.6962 43.4899C83.6228 43.4899 84.3547 42.8405 84.5105 41.933H85.4215C85.2113 43.3256 84.09 44.2644 82.6884 44.2644ZM89.6052 44.2644C87.9855 44.2644 86.763 42.9892 86.763 41.3306C86.763 39.672 87.9855 38.4124 89.6052 38.4124C91.2248 38.4124 92.4473 39.672 92.4473 41.3306C92.4473 42.9892 91.2248 44.2644 89.6052 44.2644ZM89.6052 43.4899C90.7887 43.4899 91.5596 42.5354 91.5596 41.3306C91.5596 40.1258 90.7887 39.1869 89.6052 39.1869C88.4216 39.1869 87.6507 40.1258 87.6507 41.3306C87.6507 42.5354 88.4216 43.4899 89.6052 43.4899ZM95.8796 44.1471H94.112V38.5298H95.8796C97.6627 38.5298 98.6905 39.672 98.6905 41.3149C98.6905 42.9344 97.6238 44.1471 95.8796 44.1471ZM94.9685 39.273V43.4038H95.8406C97.1254 43.4038 97.8184 42.6058 97.8184 41.3149C97.8184 40.0475 97.1332 39.273 95.8406 39.273H94.9685ZM103.909 43.396V44.1471H100.366V38.5298H103.854V39.2808H101.222V40.8768H103.621V41.6279H101.222V43.396H103.909ZM106.772 43.5838C106.772 43.9358 106.531 44.1862 106.172 44.1862C105.822 44.1862 105.573 43.9358 105.573 43.5838C105.573 43.2161 105.822 42.9657 106.172 42.9657C106.531 42.9657 106.772 43.2161 106.772 43.5838ZM113.412 44.2644C111.855 44.2644 110.648 42.9892 110.648 41.3306C110.648 39.6798 111.855 38.4124 113.412 38.4124C114.814 38.4124 115.935 39.3512 116.145 40.736H115.234C115.079 39.8285 114.347 39.1869 113.42 39.1869C112.314 39.1869 111.536 40.0866 111.536 41.3306C111.536 42.5902 112.314 43.4899 113.42 43.4899C114.347 43.4899 115.079 42.8405 115.234 41.933H116.145C115.935 43.3256 114.814 44.2644 113.412 44.2644ZM118.671 44.1471H117.814V38.5298H119.901C121.186 38.5298 121.957 39.1635 121.957 40.2822C121.957 41.0881 121.45 41.7061 120.602 41.9095L122.12 44.1471H121.092L119.698 42.0347H118.671V44.1471ZM118.671 39.2495V41.3149H119.846C120.641 41.3149 121.092 40.9629 121.092 40.2822C121.092 39.6094 120.641 39.2495 119.846 39.2495H118.671ZM127.269 43.396V44.1471H123.726V38.5298H127.214V39.2808H124.582V40.8768H126.981V41.6279H124.582V43.396H127.269ZM132.898 44.1471L132.392 42.7545H129.978L129.465 44.1471H128.6L130.742 38.5298H131.684L133.81 44.1471H132.898ZM131.193 39.4686L130.235 42.0582H132.135L131.193 39.4686ZM137.068 44.1471H136.212V39.3043H134.39V38.5298H138.89V39.3043H137.068V44.1471ZM143.969 43.396V44.1471H140.426V38.5298H143.914V39.2808H141.283V40.8768H143.681V41.6279H141.283V43.396H143.969ZM146.833 43.5838C146.833 43.9358 146.591 44.1862 146.233 44.1862C145.883 44.1862 145.634 43.9358 145.634 43.5838C145.634 43.2161 145.883 42.9657 146.233 42.9657C146.591 42.9657 146.833 43.2161 146.833 43.5838ZM153.473 44.2644C151.915 44.2644 150.708 42.9892 150.708 41.3306C150.708 39.6798 151.915 38.4124 153.473 38.4124C154.874 38.4124 155.995 39.3512 156.206 40.736H155.295C155.139 39.8285 154.407 39.1869 153.48 39.1869C152.375 39.1869 151.596 40.0866 151.596 41.3306C151.596 42.5902 152.375 43.4899 153.48 43.4899C154.407 43.4899 155.139 42.8405 155.295 41.933H156.206C155.995 43.3256 154.874 44.2644 153.473 44.2644ZM160.39 44.2644C158.77 44.2644 157.548 42.9892 157.548 41.3306C157.548 39.672 158.77 38.4124 160.39 38.4124C162.009 38.4124 163.232 39.672 163.232 41.3306C163.232 42.9892 162.009 44.2644 160.39 44.2644ZM160.39 43.4899C161.573 43.4899 162.344 42.5354 162.344 41.3306C162.344 40.1258 161.573 39.1869 160.39 39.1869C159.206 39.1869 158.435 40.1258 158.435 41.3306C158.435 42.5354 159.206 43.4899 160.39 43.4899ZM168.634 44.1471L165.69 39.7581V44.1471H164.896V38.5298H165.831L168.704 42.8014V38.5298H169.498V44.1471H168.634ZM173.999 44.2644C172.38 44.2644 171.157 42.9892 171.157 41.3306C171.157 39.672 172.38 38.4124 173.999 38.4124C175.619 38.4124 176.841 39.672 176.841 41.3306C176.841 42.465 176.273 43.4116 175.401 43.9045L176.335 45.5709H175.455L174.661 44.194C174.451 44.2409 174.225 44.2644 173.999 44.2644ZM173.999 43.4899C175.183 43.4899 175.954 42.5354 175.954 41.3306C175.954 40.1258 175.183 39.1869 173.999 39.1869C172.816 39.1869 172.045 40.1258 172.045 41.3306C172.045 42.5354 172.816 43.4899 173.999 43.4899ZM182.812 38.5298V42.1286C182.812 43.4195 181.987 44.2644 180.647 44.2644C179.308 44.2644 178.491 43.4195 178.491 42.1286V38.5298H179.347V42.1521C179.347 42.9657 179.822 43.4899 180.647 43.4899C181.481 43.4899 181.956 42.9657 181.956 42.1521V38.5298H182.812ZM188.326 43.396V44.1471H184.783V38.5298H188.271V39.2808H185.639V40.8768H188.038V41.6279H185.639V43.396H188.326ZM190.965 44.1471H190.109V38.5298H192.196C193.48 38.5298 194.251 39.1635 194.251 40.2822C194.251 41.0881 193.745 41.7061 192.896 41.9095L194.415 44.1471H193.387L191.993 42.0347H190.965V44.1471ZM190.965 39.2495V41.3149H192.141C192.935 41.3149 193.387 40.9629 193.387 40.2822C193.387 39.6094 192.935 39.2495 192.141 39.2495H190.965ZM196.987 43.5838C196.987 43.9358 196.745 44.1862 196.387 44.1862C196.037 44.1862 195.788 43.9358 195.788 43.5838C195.788 43.2161 196.037 42.9657 196.387 42.9657C196.745 42.9657 196.987 43.2161 196.987 43.5838Z" fill="white" fill-opacity="0.4"/>
</svg>
